<svg width="128" height="128" viewBox="0 0 128 128" xmlns="http://www.w3.org/2000/svg">
  <!-- Background circle -->
  <circle cx="64" cy="64" r="60" fill="#667eea" stroke="#4c63d2" stroke-width="2"/>
  
  <!-- Define the realistic bite mask -->
  <defs>
    <mask id="cookieBite">
      <rect width="128" height="128" fill="white"/>
      <!-- Realistic bite shape - more like the image -->
      <path d="M 95 35 A 25 25 0 0 1 95 65 A 15 15 0 0 1 85 50 A 20 20 0 0 1 95 35 Z" fill="black"/>
    </mask>
    
    <!-- Cookie texture gradient -->
    <radialGradient id="cookieGradient" cx="0.4" cy="0.3">
      <stop offset="0%" stop-color="#F4D03F"/>
      <stop offset="30%" stop-color="#E8B86D"/>
      <stop offset="70%" stop-color="#D2691E"/>
      <stop offset="100%" stop-color="#A0522D"/>
    </radialGradient>
    
    <!-- Chocolate chip gradient -->
    <radialGradient id="chipGradient" cx="0.3" cy="0.3">
      <stop offset="0%" stop-color="#4A2C17"/>
      <stop offset="50%" stop-color="#3C1F0F"/>
      <stop offset="100%" stop-color="#2F1508"/>
    </radialGradient>
  </defs>
  
  <!-- Cookie base with realistic coloring -->
  <circle cx="64" cy="64" r="40" fill="url(#cookieGradient)" stroke="#8B4513" stroke-width="1" mask="url(#cookieBite)"/>
  
  <!-- Cookie texture bumps and irregularities -->
  <circle cx="58" cy="58" r="2" fill="#CD853F" mask="url(#cookieBite)" opacity="0.6"/>
  <circle cx="70" cy="52" r="1.5" fill="#CD853F" mask="url(#cookieBite)" opacity="0.6"/>
  <circle cx="52" cy="70" r="2.5" fill="#CD853F" mask="url(#cookieBite)" opacity="0.6"/>
  <circle cx="75" cy="70" r="1.8" fill="#CD853F" mask="url(#cookieBite)" opacity="0.6"/>
  <circle cx="60" cy="78" r="2" fill="#CD853F" mask="url(#cookieBite)" opacity="0.6"/>
  <circle cx="45" cy="60" r="1.5" fill="#CD853F" mask="url(#cookieBite)" opacity="0.6"/>
  <circle cx="72" cy="45" r="2" fill="#CD853F" mask="url(#cookieBite)" opacity="0.6"/>
  
  <!-- Realistic chocolate chips with 3D effect -->
  <ellipse cx="55" cy="55" rx="4.5" ry="4" fill="url(#chipGradient)" mask="url(#cookieBite)"/>
  <ellipse cx="72" cy="60" rx="4" ry="4.5" fill="url(#chipGradient)" mask="url(#cookieBite)"/>
  <ellipse cx="50" cy="72" rx="4.2" ry="3.8" fill="url(#chipGradient)" mask="url(#cookieBite)"/>
  <ellipse cx="75" cy="75" rx="4.8" ry="4.2" fill="url(#chipGradient)" mask="url(#cookieBite)"/>
  <ellipse cx="60" cy="80" rx="3.5" ry="4" fill="url(#chipGradient)" mask="url(#cookieBite)"/>
  <ellipse cx="45" cy="58" rx="4" ry="4.5" fill="url(#chipGradient)" mask="url(#cookieBite)"/>
  <ellipse cx="68" cy="48" rx="3.8" ry="3.5" fill="url(#chipGradient)" mask="url(#cookieBite)"/>
  <ellipse cx="58" cy="68" rx="4.2" ry="4" fill="url(#chipGradient)" mask="url(#cookieBite)"/>
  <ellipse cx="48" cy="48" rx="3.5" ry="4" fill="url(#chipGradient)" mask="url(#cookieBite)"/>
  
  <!-- Chocolate chip highlights for 3D effect -->
  <ellipse cx="56" cy="54" rx="1.5" ry="1.2" fill="#5D2F17" mask="url(#cookieBite)" opacity="0.8"/>
  <ellipse cx="73" cy="59" rx="1.2" ry="1.5" fill="#5D2F17" mask="url(#cookieBite)" opacity="0.8"/>
  <ellipse cx="51" cy="71" rx="1.4" ry="1.1" fill="#5D2F17" mask="url(#cookieBite)" opacity="0.8"/>
  <ellipse cx="76" cy="74" rx="1.6" ry="1.3" fill="#5D2F17" mask="url(#cookieBite)" opacity="0.8"/>
  
  <!-- Cookie edge shading for depth -->
  <circle cx="64" cy="64" r="39" fill="none" stroke="#8B4513" stroke-width="2" mask="url(#cookieBite)" opacity="0.7"/>
  
  <!-- Subtle prohibition sign that doesn't overwhelm the cookie -->
  <circle cx="64" cy="64" r="50" fill="none" stroke="#DC143C" stroke-width="3" opacity="0.8"/>
  <line x1="25" y1="25" x2="103" y2="103" stroke="#DC143C" stroke-width="3" stroke-linecap="round" opacity="0.8"/>
</svg> 